<svg version="1" xmlns="http://www.w3.org/2000/svg" width="1066.667" height="1066.667" viewBox="0 0 800.000000 800.000000"><path d="M314.5 80.4c-42.3 42.6-77.1 77.8-77.2 78.2-.2.5 5.9 3.6 13.4 6.8 7.6 3.3 16.1 6.9 18.8 8.1 2.8 1.3 10.6 4.6 17.5 7.5 6.9 2.9 15 6.4 18 7.8 9.1 4 11.8 5.2 12.3 5.2s8.2 3.4 18.2 8c3.6 1.6 4.9 1.5 9-1.1 5.8-3.7 9.2-4.8 16.6-5.7 4.3-.5 8.4-.4 11.8.4 5.1 1.1 5.2 1.1 6.8-1.7 1-1.6 2.1-2.9 2.4-2.9.4 0 .9-.6 1.1-1.3.2-.6 5.3-9 11.3-18.4 6.1-9.5 12.1-19.1 13.5-21.3l14-22c6.3-9.9 12.2-19.1 13-20.4.8-1.4 5.4-8.6 10.3-16.1 4.8-7.5 8.7-14.1 8.7-14.6s.3-.9.8-.9c.4 0 1.4-1.3 2.4-2.9l1.6-2.9-33.5-33.6C406.9 18.1 391.7 3 391.6 3c-.1 0-34.8 34.8-77.1 77.4zM473.3 89.7c-.4 1-2.2 3.9-4 6.5-1.8 2.6-3.3 5.2-3.3 5.8 0 .5-.4 1-1 1-.5 0-1 .7-1 1.5s-.4 1.5-1 1.5c-.5 0-1 .4-1 .9s-8.1 13.5-18 29-18 28.6-18 29.1c0 .4-.4 1-.8 1.2-.4.1-4.2 5.7-8.2 12.3-4.1 6.6-7.8 12.4-8.2 13-1.2 1.4-4.8 7.1-8.6 13.3-3 5-4.1 9.2-2.4 9.2 1.3 0 4.9 10.7 5.1 15.1.1 1.1 3.1 2.9 8.9 5.4 4.8 2 10.7 4.6 13.2 5.7 2.5 1.1 5.9 2.6 7.5 3.3 1.7.8 14.3 6.2 28 12 13.8 5.9 26.8 11.5 29 12.5 8.8 3.9 12 5.3 13 5.6.6.1 3.5 1.3 6.6 2.7 3.5 1.6 6 2.2 6.6 1.6.5-.5 3.3-2.1 6.3-3.7 4.2-2.1 5.4-3.2 5.6-5.2 0-1.4.5-4.5.9-7 1.1-6.2 1.3-6.9 1.9-12 .3-2.5.8-5.6 1.1-7 .3-1.4.8-4.1 1.1-6 .3-1.9 1.4-9.1 2.5-16s2.2-14.1 2.5-16c.3-1.9.7-4.6 1-6 1-5.4 1.2-6.7 1.9-11.5.4-2.8.8-5.9 1-7 .1-1.1.3-2 .4-2 .1 0 .4-1.4.6-3 .4-2.9.8-5.9 2.1-14.3l.5-3.7-34.5-34.8c-19-19.1-35-34.7-35.6-34.7-.6 0-1.4.8-1.7 1.7zM187.3 208.8c-17.2 17.4-35.6 36.1-41 41.4-9.4 9.4-9.6 9.8-8.3 12.2.7 1.4 2 3.4 2.9 4.3.9 1 2.2 3 3 4.5.8 1.6 1.8 2.8 2.3 2.8.4 0 .8.7.8 1.5s.5 1.5 1 1.5c.6 0 1 .5 1 1 0 .9 10.3 16.6 13 19.7.5.7 1 1.6 1 2.2 0 .5.3 1.1.8 1.3.6.2 22.7 32.5 25.7 37.5 1.4 2.4 2.1 3.4 5 6.9 1.4 1.8 2.5 3.6 2.5 4.1 0 .5 1.3 2.4 3 4.3 1.6 1.9 2.9 4 3 4.7 0 .6.3 1.3.8 1.5.4.1 3.4 4.3 6.7 9.3 3.3 4.9 6.3 9.1 6.7 9.3.5.2.8.7.8 1.2s2.5 4.5 5.6 9c4.8 6.9 6 8.1 7.8 7.5 2.8-.8 9.9-.9 15.9-.1 4.4.5 4.8.4 5.9-1.9.6-1.4 1.5-2.5 2-2.5.4 0 .8-.5.8-1 0-1 4.8-8.9 6.1-10 .3-.3.9-1.2 1.3-2 1-2.2 2.5-4.6 8.9-14.3 3.1-4.8 5.7-9 5.7-9.3 0-.3.5-1 1.1-1.7 1.6-1.8 40.9-63.6 42.4-66.7.5-1.1 1.3-2 1.7-2 .5 0 .8-.4.8-.9 0-.9 6-10.5 8-12.8.5-.7 1-1.4 1-1.7 0-.3 1.4-2.5 3.1-5l3-4.6-2.1-2.2c-6.3-6.7-10.4-21.6-8.6-31.1.4-2.1-.1-3.1-1.9-4.3-1.3-.9-3-1.7-3.7-1.8-.7-.1-3-1-5-1.9-2.1-.9-5.5-2.4-7.5-3.3-2.1-.9-5.3-2.2-7-3-1.8-.8-4.8-2-6.5-2.8-11.9-5-19-8.1-23.6-10.2-2.9-1.3-5.6-2.4-6-2.4-.4 0-2-.7-3.7-1.6-1.6-.8-6.7-3.1-11.3-5-4.5-1.9-10.1-4.3-12.5-5.3-10.7-4.9-18.6-8.1-19.9-8-.7 0-15.4 14.3-32.5 31.7zM565.5 180.2c-.5 1.6-2 10.3-3 17.8-.2 1.9-.9 6-1.5 9s-1.3 7.5-1.6 10c-.2 2.5-.7 5.6-1 7-.7 3-1 5.1-1.8 11-.4 2.5-.9 5.7-1.2 7.2-.3 1.5-.8 4.2-1 6-.3 1.8-.7 4.4-.9 5.8-.2 1.4-.7 4.3-1 6.5-.5 4.3-1.3 8-1.5 8-.1 0-.3 1.2-.5 2.7-.3 1.9.3 3.1 2.2 4.5 1.4 1 4.1 3.1 5.9 4.6 1.8 1.5 3.5 2.4 3.8 1.8.3-.5 1.6-1.1 2.9-1.5 1.3-.3 4.5-1.5 7.3-2.8 2.7-1.2 5.1-2.3 5.4-2.3.3-.1 3.1-1.3 6.4-2.8 3.2-1.5 6-2.7 6.2-2.7.2 0 2.7-1.1 5.6-2.4 2.9-1.3 8.2-3.6 11.8-5.1 3.6-1.5 9.2-4 12.5-5.4 3.3-1.5 8.1-3.6 10.8-4.7 2.6-1 4.6-2.5 4.5-3.1-.3-1.2-68.5-70.3-69.4-70.3-.3 0-.7.6-.9 1.2zM394.7 257.2c-3 3.7-9.9 9.3-12.2 9.8-.5.1-1.4.5-2 1-2.1 1.7-12.2 3.6-17.3 3.3l-5.2-.3-2.8 4.6c-1.5 2.6-3.3 5.2-3.9 5.9-.7.8-1.3 1.6-1.3 1.9 0 .3-3.4 5.7-7.5 12.1-4.1 6.3-7.5 11.9-7.5 12.4s-.3 1.1-.7 1.3c-1.1.4-8.3 11.6-8.3 12.8 0 .5-.4 1-1 1-.5 0-1 .6-1 1.3 0 .7-.9 2.3-2 3.5-1.1 1.2-2 2.4-2 2.7 0 .2-4.1 6.9-9.1 14.7-15.4 24.1-17.2 26.8-26.4 41.3-4.9 7.7-9.4 14.3-10 14.7-.5.4-.6.8-.1.8s.1.9-.9 2-1.5 2.3-1.2 2.6c.7.7 3.6-.3 13.5-4.8 3.4-1.5 6.5-2.8 6.8-2.8.3 0 2.6-1 5.2-2.2 2.6-1.2 4.9-2.3 5.2-2.3.7-.2 7.7-3.2 12.5-5.4 10.3-4.7 30.5-13.1 31.4-13.1.6 0 1.1-.5 1.1-1 0-.6.7-1 1.5-1 .9 0 4.6-1.4 8.3-3.1 3.7-1.6 7.6-3.4 8.7-3.9 10.2-4.5 13.6-6 14.1-6 .3 0 3.5-1.4 7.2-3.1 3.7-1.6 7.6-3.4 8.7-3.9 1.1-.5 4.3-1.9 7-3.1 2.8-1.3 5.5-2.4 6-2.5.9-.2 12.1-5 23.9-10.3 2.3-1 8.6-3.7 14.1-6.1 5.5-2.3 12.5-5.3 15.5-6.7 3-1.4 7.7-3.4 10.5-4.5 2.7-1.1 7.2-3 10-4.2 2.7-1.3 7.5-3.4 10.5-4.6 7.3-3.1 8.2-4 8.5-9.3l.3-4.4-14.6-6.3c-8.1-3.4-16.5-7.1-18.7-8.1-2.2-1-7.4-3.2-11.5-5-4.1-1.7-9.3-3.9-11.5-4.9-2.2-1-9.6-4.1-16.5-7-6.9-2.9-13.8-5.8-15.5-6.5-1.6-.8-6-2.7-9.8-4.4l-6.7-3-3.3 4.1zM646.5 270.6c-4.4 1.9-8.9 3.9-10 4.4-2.7 1.2-8.7 3.8-24.5 10.5-7.4 3.2-15.3 6.6-17.5 7.5-14.5 6.6-17.5 7.8-17.5 7.3 0-.3-.9.2-2 1.2-1.9 1.8-1.7 1.9 11.8 7.7 7.5 3.2 15.1 6.5 16.7 7.2 1.7.8 7.5 3.3 13 5.6s11.4 4.8 13 5.5c1.7.8 8 3.5 14 6.1 6.1 2.5 12.8 5.4 15 6.4 3.6 1.6 11 4.7 20.3 8.6 3.8 1.7 7.7 3.4 15.5 6.8 3.2 1.4 6 2.6 6.2 2.6.2 0 2.8 1.1 5.7 2.4 2.9 1.3 9.8 4.3 15.3 6.6s10.8 4.6 11.7 5.1c1 .5 2.5.9 3.3.9.8 0 1.5.4 1.5 1 0 .5.8 1 1.8 1s2.2.4 2.8.8c.5.5 2.7 1.6 4.9 2.5 2.2.8 5.8 2.3 8 3.3s4.2 1.8 4.5 1.9c1.2.4 6.8 2.8 9.4 4 3.2 1.6 5 1.1 3.8-1.1-.7-1.3-112.4-113.6-116.8-117.5-1.8-1.6-2.4-1.4-9.9 1.7zM67.1 328.5c-28.3 28.3-51.3 51.6-51 51.9.2.3 1.6.7 2.9.9 1.4.3 3.2.8 4 1.1.8.3 2.9.7 4.5 1 3.8.6 26.9 5.4 31.5 6.6 1.9.5 5.2 1.1 7.4 1.4 2.1.4 4.2.8 4.6 1.1.4.3 2.3.7 4.1 1 3.9.5 7.3 1.2 9.7 1.9.9.3 3.3.8 5.2 1.1 1.9.3 5.1 1 7 1.5 1.9.5 4.9 1.1 6.5 1.3 1.7.3 4.8.9 7 1.5s5.1 1.3 6.5 1.5c2 .4 20.2 4.2 24.5 5.2.6.1 2.8.6 5 1 5.5 1.2 5.5 1.2 5.8 1.4.1.1 1.6.4 3.2.6 1.7.2 4 .6 5.3.9 2.8.7 3.8 1 15.3 3.5 11.8 2.5 14.7 3.1 18.4 3.7 1.7.3 3.5.7 4.1.9 1 .3 9.4-10.4 9.4-12 0-.4-4.2-6.8-9.3-14.3-5.2-7.5-12.9-18.9-17.2-25.2-4.3-6.3-11.8-17.4-16.7-24.5-4.9-7.2-11.5-16.8-14.6-21.5-3.1-4.7-6-8.7-6.4-8.8-.5-.2-.8-.8-.8-1.4 0-.5-.6-1.5-1.2-2.3-.7-.7-5.1-7-9.8-14-4.7-7-9.6-14-11-15.6l-2.5-2.9-51.4 51.5zM558.9 328.6c-3.6 3.8-9.1 7-13.2 7.8-5.6 1-6.3 2.1-7.6 10.8-.7 4.6-1.4 9.2-1.5 10.3-.2 1.1-.7 4-1 6.5-.4 2.5-1.7 10.1-2.8 17-1.1 6.9-2.1 13.4-2.3 14.5-.1 1.1-.3 2-.5 2-.1 0-.3 1.4-.5 3.1-.2 1.6-.6 4.8-1 7-.4 2.1-.8 5-1 6.4-.2 1.4-.4 2.7-.5 3-.1.3-.2.8-.1 1.3.1.4-.3 2.6-.8 5-.5 2.3-1.2 6.4-1.6 9.2-.3 2.7-.8 5.9-1.1 7-.2 1.1-.6 3.6-.9 5.5-.2 1.9-.6 4.6-.9 6-.3 1.4-.8 4.1-1 6-.3 1.9-.7 4.6-1 6-.4 1.8.1 3.1 2.3 5 3.6 3.4 8.3 11.4 8.7 15.1.5 4.3 2.2 6.9 4.4 7 2.1.2 3.8.5 4.3.9.1.1 1.1.3 2.2.5s3.4.6 5 .9c5.3 1.1 7.9 1.6 10.5 2.1 2.5.5 9.4 2 15.9 3.6 1.9.5 3.8.6 4.3.3.4-.3.8 0 .8.6s.4.9.8.6c.5-.3 2.5-.1 4.5.5 2.1.5 4.9 1.2 6.5 1.4 1.5.3 4.5.9 6.7 1.4 4.1 1 5.1 1.2 14.5 3 3 .6 6.4 1.3 7.5 1.6 1.1.3 4.9 1.1 8.5 1.9 6.4 1.4 6.7 1.5 7.3 1.7.1 0 1.1.2 2.2.4s4.2.7 6.9 1.3l4.8 1 52.7-52.9c28.9-29.1 52.6-53.4 52.6-54 0-1-9.2-5.2-42.5-19.4-7.4-3.2-15.7-6.7-18.5-8-2.7-1.2-10.8-4.6-18-7.6-7.1-3-13.1-5.7-13.3-6.1-.2-.5-1.2-.8-2.1-.8-1 0-2.1-.3-2.5-.8-.4-.4-1.1-.7-1.4-.8-.4 0-1.8-.5-3.2-1.1-5.9-2.6-19.7-8.5-22.9-9.9-2-.9-4.5-2-5.6-2.4-1.1-.4-4-1.7-6.5-2.8-21.1-9.2-52.2-22.2-53.3-22.2-.7 0-2.9 1.6-4.8 3.6zM504.5 332c-3.3 1.6-6.3 2.9-6.7 3-.4 0-3.7 1.4-7.4 3.1-3.7 1.7-7.3 3.2-7.9 3.3-.7.1-2 .8-2.9 1.5-.9.7-1.6 1.1-1.6.7 0-.3-2.2.5-5 1.9-2.7 1.4-7.1 3.4-9.7 4.4-2.7 1-7.4 3.1-10.5 4.5-3.1 1.4-5.9 2.6-6.2 2.6-.2 0-3.3 1.3-6.8 2.9-3.5 1.6-9.7 4.3-13.8 6.1-4.1 1.8-9.9 4.3-12.8 5.6-2.9 1.3-5.4 2.4-5.6 2.4-.2 0-3 1.2-6.2 2.7-3.3 1.5-6.3 2.8-6.9 2.9-.9.2-16.6 7-26.2 11.5-2.4 1-4.5 1.9-4.7 1.9-.2 0-2.5 1-5.2 2.2-2.7 1.2-5.1 2.3-5.4 2.3-.8.2-11.6 4.9-19 8.3-10 4.5-24 10.2-24.9 10.2-.6 0-1.1.4-1.1 1 0 .5-.6 1-1.4 1-1.2 0-6.6 2.3-19.3 8-5.1 2.4-5.2 2.6-4.4 7.5.5 3.1 1.1 4 2.7 4.1 1.2.1 2.7.4 3.3.8.6.4 2.8 1 4.9 1.2 2 .3 5.3.9 7.2 1.4 1.9.5 5.3 1.2 7.5 1.6 2.2.3 4.3.8 4.6 1 .3.2 1.9.6 3.5.8 1.6.3 4 .8 5.4 1.1 1.4.3 4.1.8 6 1.2 1.9.4 3.7.8 4 .8.3.1 1.9.4 3.5.8 1.7.4 4.2.9 5.8 1.2 6 1.1 8.3 1.6 9.7 2 .8.3 3.3.7 5.5 1.1 2.2.3 4.3.8 4.6 1 .4.2 2.4.6 4.5.9 2.2.4 4.7.8 5.6 1.1 1.8.5 4.5 1.1 9.3 2 1.7.3 5 1 7.5 1.5 2.5.6 5.4 1.2 6.5 1.5 1.1.2 4 .8 6.5 1.4 2.5.5 5.6 1.2 7 1.4 1.4.3 4.8 1 7.5 1.6 2.8.6 6.4 1.3 8 1.5 1.7.3 4.6.9 6.5 1.4 3 .8 8.4 2 16.8 3.6 1.3.2 3.1.6 4 .9.9.3 3.4.7 5.6 1.1 2.1.3 4.1.7 4.5 1 .4.2 2.8.7 5.2 1 4.4.6 4.6.5 7.2-3.2 5.2-7.4 14.2-12.7 22.5-13.2 1.5-.1 2.8-3.2 3.5-9.1.4-2.5.9-5.6 1.1-7 .3-1.3.8-4.2 1.1-6.5.4-2.2.8-5.4 1.1-7 .3-1.7.7-4.1.9-5.5.2-1.4.6-3.9.9-5.5.3-1.7.8-4.5 1.1-6.3.3-1.7.7-4.4 1-6 .2-1.5.7-4.5 1-6.7.2-2.2.7-5.1.9-6.5.8-4.1 3.1-18.4 4-25.1.3-1.7.7-4.2 1-5.7.3-1.5.8-4.3 1-6.2.2-1.9 1.1-7.6 2-12.6 1.8-10.2 1.6-11.6-2-13.3-3.2-1.4-2.9-1.5-9.9 1.9zM31 408.9c0 .5 15.9 17 35.3 36.6 38.9 39.3 34.5 35.9 43 32.6 1.2-.5 2.4-.8 2.7-.8.3 0 1.6-.6 3-1.3 1.4-.8 2.7-1.5 3-1.6.3 0 2.3-.9 4.5-1.8 2.2-1 6-2.7 8.5-3.8 2.5-1.1 5.9-2.5 7.5-3.3 7.2-3.2 11.1-4.8 12-5.1 1.3-.3 28.1-11.9 32-13.9 1.7-.8 4.2-1.9 5.8-2.4 5.2-2 3.4-2.9-11.2-5.7-.7-.1-3.6-.8-6.5-1.5-2.8-.7-5.8-1.3-6.6-1.4-.8-.1-4-.7-7-1.3-3-.7-6.4-1.4-7.5-1.6-1.1-.3-8.5-1.8-16.5-3.5-8-1.8-15.6-3.4-17-3.6-1.4-.3-3.6-.7-5-1-1.4-.3-3.6-.8-5-1.1-1.4-.3-4.1-.9-6-1.4-2-.5-5.1-1.2-7-1.4-4-.6-7.4-1.3-9.8-2-.9-.3-3.3-.8-5.2-1.1-1.9-.3-4.2-.8-5-1-.8-.2-2.6-.6-4-.9-6.2-1.2-9.1-1.8-17.9-3.7-5.1-1.2-10.3-2.3-11.5-2.5-5.1-1.2-8.6-1.4-8.6-.5zM278.4 460.8c-.6.4-1.6 1.6-2.1 2.7-1 1.6-.3 3.2 4.3 9.8 3 4.3 5.4 8.2 5.4 8.7 0 .4.7 1 1.5 1.4.8.3 1.5 1.2 1.5 1.9 0 .8.9 2.2 2 3.2s2 2.3 2 3c0 .7.9 2 2 3s2 2.2 2 2.7.6 1.6 1.3 2.4c2.3 2.8 3.2 4 4.2 5.7 1.2 2 23.5 34.8 24.7 36.2.5.5 2 2.8 3.4 5 7.7 11.6 21.9 32.1 22.8 32.7.6.4.7.8.3.8-.5 0-.2.6.5 1.4.7.8 5.1 7.1 9.8 14.1 4.7 7 9 13.3 9.5 13.9.6.7 1.5 1.9 2 2.8 3.2 5.4 20 29.4 20.7 29.6.4.2.8.8.8 1.4 0 .5 2.1 3.9 4.8 7.6 2.6 3.6 5.2 7.4 5.7 8.4 1.2 2 17.5 25.8 18.8 27.3.4.5 2.5 3.5 4.5 6.6 10.7 16.1 14.8 21.9 15.8 21.9.6 0 3.4-2.4 6.2-5.4 4.4-4.6 5.2-6 5.7-10.6.3-3 .8-5.6.9-5.9.3-.5 1.1-5 2.1-12.6.1-1.1.3-2 .5-2 .1 0 .3-1.1.5-2.5.1-1.4.5-4.3.8-6.5.4-2.2.9-5.8 1.2-8 .3-2.2.9-6.3 1.5-9 1.3-7.1 2.5-14.6 3.5-22 .1-1.1.3-2 .5-2s.5-1.9 1.4-9.9c.4-3.2.9-6.2 1.1-6.6.3-.4.7-2.5.9-4.6.8-6.4 1.6-11.8 2.1-13.4.3-.8.7-3.5 1-6 .3-2.5 1-7 1.5-10s1.1-7.1 1.4-9c.3-1.9.8-4.6 1-6 .3-1.4.7-4.3 1-6.5.4-2.2.8-5.1 1.1-6.5.2-1.4.7-4.1.9-6 .3-1.9.8-4.6 1-6 .3-1.4.8-4.7 1.1-7.4.3-2.7.8-5.2 1-5.6.9-1.5-.6-3.8-2.8-4.4-4.6-1.2-14.7-12.7-14.7-16.7 0-2-3.8-6.1-5.1-5.4-.5.4-.9.3-.9-.2 0-.4-1-.9-2.2-1-2.7-.1-4.5-.5-15.3-2.8-4.4-.9-9.1-1.9-10.5-2.1-1.4-.3-3.3-.7-4.2-1-1-.3-3-.7-4.5-1-1.6-.2-3.9-.7-5.3-1-4.7-1.1-6.5-1.5-9-1.9-1.4-.2-4.7-.9-7.5-1.5-2.7-.6-5.9-1.3-7-1.4-1.1-.2-2.7-.6-3.5-.9-.8-.3-3.3-.9-5.5-1.2-2.2-.3-5.6-1-7.5-1.5-1.9-.5-5.3-1.2-7.5-1.6-4.3-.7-4.8-.8-8.5-1.7-1.4-.4-3.6-.9-5-1.1-1.4-.3-7-1.4-12.5-2.6-5.5-1.1-11.1-2.3-12.5-2.5-1.4-.3-6.5-1.4-11.5-2.5-4.9-1.1-10.5-2.2-12.4-2.5-1.9-.3-3.7-.7-4-.9-.3-.2-2.2-.7-4.1-1-1.9-.3-6.9-1.2-11-2.1-10.8-2.4-12.4-2.6-13.6-1.7zM192.5 466.6c-4.4 2-10 4.5-12.5 5.7-2.5 1.1-4.7 2.1-5 2.2-1.2.4-4.9 1.9-9 3.7-2.5 1.2-10.2 4.4-17.1 7.4-6.9 2.9-15.6 6.6-19.3 8.3-3.6 1.7-7.1 3.1-7.6 3.1-.6 0-1 .6-1 1.3 0 1.4 38 39.7 39.5 39.7.9 0 18.3-26.4 19.4-29.4.2-.6.7-1.3 1-1.6.4-.3 3.5-5 7-10.5 3.4-5.5 8.5-13.4 11.2-17.5 2.7-4.1 5.2-8.1 5.6-8.9.7-1.5-1.6-6.3-3.2-6.7-.5-.2-4.6 1.3-9 3.2zM251.5 481.7c-4.1 1.5-15.9 2.1-20.5 1.1-1.4-.3-2.9-.7-3.5-.8-3.2-.7-4.2.6-20 26-3.3 5.2-6.3 9.6-6.7 9.8-.4.2-.8 1-.8 1.8s-.5 1.4-1.2 1.4c-.6 0-.8.3-.5.7.4.3 0 1.5-1 2.5-.9 1-2.1 2.7-2.7 3.8-.6 1.1-4.5 7.3-8.6 13.7-4.1 6.4-7.8 12.4-8.2 13.3-.4 1.2 26.8 29.1 106.2 108.8 58.8 59 107.1 107.2 107.3 107.2.2 0 9-8.6 19.5-19.2l19.1-19.2-1.7-2.8c-.9-1.5-2-2.8-2.4-2.8-.4 0-.8-.4-.8-1 0-.7-5.9-10-8.7-13.5-.5-.6-6.4-9.3-13.2-19.5-6.9-10.2-12.7-18.7-13.1-19-.3-.3-1.7-2.3-3-4.5s-4.6-7-7.2-10.6c-2.6-3.7-4.8-7.1-4.8-7.7 0-.6-.4-1.2-.8-1.4-.5-.2-6.4-8.6-13.3-18.8-6.8-10.2-12.6-18.7-12.9-19-.3-.3-4.6-6.6-9.6-14s-12.3-18.2-16.3-24c-3.9-5.8-7.7-11.3-8.3-12.4-.7-1-2.5-3.5-3.9-5.5s-7.2-10.6-12.9-19.1c-5.8-8.5-10.7-15.7-11-16-.3-.3-4.5-6.5-9.5-13.9-4.9-7.3-11-16.3-13.5-20-2.5-3.6-5.2-6.7-6-6.7-.8-.1-3.3.5-5.5 1.3zM521.3 515.5c-2.4 2.4-5.8 5-7.8 5.9-1.9.9-3.5 2-3.6 2.4-.1.8-.4 2.8-1.9 11.7-.5 3.3-1.2 7.6-1.5 9.5-.2 1.9-.7 4.6-.9 6-.3 1.4-.7 4.1-1 6-.3 1.9-.8 4.6-1 6-.3 1.4-.7 4.3-1 6.5-.3 2.2-.8 5.3-1.1 7-.4 1.6-.8 4.3-1.1 6-.7 5.5-1.4 9.9-2.4 15.5-.5 3-1.1 7.1-1.4 9-.3 1.9-.7 4.4-1 5.5-.2 1.1-.6 4.1-1 6.6s-.9 5.7-1.1 7c-.2 1.3-.6 4-.9 5.9-.3 1.9-.7 4.4-1 5.5-.2 1.1-.7 4.2-1 6.8-.4 2.7-.9 5.8-1.2 7-.2 1.2-.6 3.9-1 6.2-.3 2.2-.7 4.9-.9 6-1.6 9.5-1.7 12.8-.6 12.1.6-.4 31.6-31.4 68.9-68.8 37.2-37.4 68.8-69.1 70.2-70.4 2.8-2.7 2.1-4-2.5-4.8-1.6-.3-4.3-.8-6-1.1-1.6-.3-3.8-.8-4.7-1.1-2-.6-5.2-1.3-9.8-2-1.9-.3-6.2-1.2-9.5-1.9-5.5-1.3-42.5-9-48.5-10.1-1.4-.3-3.3-.7-4.2-1-1-.3-3-.7-4.5-1-1.6-.2-4.1-.7-5.8-1.1-1.6-.4-3.4-.7-4-.8-.5-.1-2.9 1.7-5.2 4z"/></svg>