<?xml version="1.0" standalone="no"?>
<!DOCTYPE svg PUBLIC "-//W3C//DTD SVG 20010904//EN"
 "http://www.w3.org/TR/2001/REC-SVG-20010904/DTD/svg10.dtd">
<svg version="1.0" xmlns="http://www.w3.org/2000/svg"
 width="16.000000pt" height="16.000000pt" viewBox="0 0 16.000000 16.000000"
 preserveAspectRatio="xMidYMid meet">
<metadata>
Created by potrace 1.11, written by Peter Selinger 2001-2013
</metadata>
<g transform="translate(0.000000,16.000000) scale(0.002000,-0.002000)"
fill="#000000" stroke="none">
<path d="M3137 7195 c-423 -426 -767 -780 -765 -786 2 -7 233 -111 513 -231
l510 -219 65 35 c91 48 170 63 256 47 37 -6 70 -8 74 -4 15 16 800 1254 800
1261 0 11 -664 672 -675 672 -6 0 -356 -349 -778 -775z"/>
<path d="M4410 6603 c-184 -290 -361 -568 -393 -618 l-57 -92 24 -54 c14 -30
30 -76 37 -103 14 -57 -62 -19 633 -318 440 -189 492 -209 510 -197 12 7 41
23 66 35 l46 22 22 148 c13 82 43 273 68 424 24 151 55 343 68 425 l24 150
-351 353 c-193 193 -354 352 -357 352 -3 0 -156 -237 -340 -527z"/>
<path d="M1776 5821 c-413 -413 -419 -420 -404 -443 8 -13 216 -320 462 -683
l447 -660 97 0 c53 -1 104 -4 112 -8 8 -4 20 -3 26 1 11 7 874 1358 874 1368
0 2 -15 27 -34 54 -50 72 -70 141 -70 239 l-1 85 -33 13 c-18 7 -261 112 -541
233 -280 121 -510 220 -512 220 -2 0 -193 -189 -423 -419z"/>
<path d="M5657 6213 c-7 -11 -27 -125 -67 -373 -17 -107 -44 -277 -60 -377
-17 -100 -30 -188 -30 -195 0 -8 21 -30 47 -49 25 -19 51 -38 57 -42 11 -8
737 300 759 322 9 9 -79 101 -344 367 -196 196 -359 352 -362 347z"/>
<path d="M3927 5415 c-32 -37 -69 -64 -114 -87 -58 -28 -77 -33 -151 -34 l-85
-1 -130 -204 c-617 -967 -728 -1143 -723 -1155 6 -16 1 -18 181 61 137 60
1034 448 1705 737 217 94 401 175 408 181 8 7 12 28 10 61 l-3 51 -515 222
c-283 122 -519 222 -525 222 -5 1 -31 -24 -58 -54z"/>
<path d="M6135 5157 c-223 -97 -400 -179 -400 -186 0 -12 1965 -861 1992 -861
7 0 13 8 13 18 0 18 -1177 1202 -1195 1202 -6 0 -190 -78 -410 -173z"/>
<path d="M666 4721 c-322 -322 -507 -514 -504 -523 4 -9 126 -39 374 -92 203
-43 599 -127 879 -186 564 -121 595 -126 595 -114 0 5 18 33 41 63 l41 54 -96
141 c-595 874 -795 1161 -807 1164 -8 1 -243 -227 -523 -507z"/>
<path d="M5603 4737 c-31 -40 -102 -85 -153 -97 -28 -7 -52 -15 -54 -19 -2 -3
-14 -64 -25 -136 -21 -126 -33 -199 -85 -525 -14 -85 -39 -238 -55 -340 -48
-297 -46 -279 -23 -295 31 -22 80 -105 93 -160 7 -27 15 -53 18 -57 6 -7 244
-59 889 -194 l273 -58 530 530 c291 291 529 536 529 545 0 11 -263 128 -949
422 -522 224 -954 407 -959 407 -6 0 -19 -10 -29 -23z"/>
<path d="M4575 4483 c-297 -129 -801 -347 -1120 -485 -319 -137 -593 -257
-609 -265 -27 -14 -28 -17 -22 -61 3 -25 7 -47 9 -48 1 -2 90 -21 197 -44 107
-22 258 -54 335 -70 133 -28 516 -108 985 -206 118 -24 246 -51 284 -60 38 -8
72 -11 76 -7 3 4 18 25 33 45 38 52 105 95 173 113 32 8 61 18 65 22 3 5 21
100 38 213 18 113 39 241 46 285 8 44 28 170 46 280 17 110 42 261 54 335 l23
135 -29 28 c-16 15 -33 27 -37 26 -4 -1 -250 -107 -547 -236z"/>
<path d="M305 3919 c-5 -7 95 -114 257 -278 145 -146 307 -310 359 -364 l96
-98 79 35 c43 18 243 104 443 190 200 86 368 159 373 162 15 10 -10 31 -45 37
-17 3 -161 33 -319 66 -547 116 -864 182 -1033 217 -93 19 -177 37 -187 40 -9
3 -20 0 -23 -7z"/>
<path d="M2777 3395 c-39 -38 -39 -39 285 -512 642 -940 1183 -1733 1286
-1885 59 -87 112 -158 117 -158 6 0 34 24 63 53 l52 53 25 150 c13 82 36 221
50 309 14 88 34 214 45 280 11 66 33 206 50 310 16 105 50 315 75 467 25 152
45 286 45 297 0 12 -16 28 -44 45 -56 33 -92 76 -127 152 l-28 61 -128 26
c-70 14 -225 46 -343 71 -118 25 -313 65 -433 90 -119 25 -315 66 -435 91
-119 26 -282 59 -362 76 -80 16 -152 32 -161 34 -9 3 -24 -1 -32 -10z"/>
<path d="M1598 3198 c-219 -95 -398 -177 -398 -183 0 -13 392 -405 405 -405 6
0 111 159 233 352 219 345 224 353 209 378 -9 14 -24 26 -34 27 -10 2 -197
-75 -415 -169z"/>
<path d="M2530 3192 c-33 -15 -173 -21 -264 -10 -28 3 -37 -10 -262 -362 -128
-201 -233 -372 -234 -380 0 -8 483 -498 1073 -1088 l1072 -1072 193 193 c105
106 192 197 192 203 0 6 -17 35 -38 65 -21 30 -393 576 -827 1214 -838 1233
-853 1255 -863 1254 -4 0 -23 -8 -42 -17z"/>
<path d="M5224 2859 c-16 -17 -52 -44 -80 -60 -49 -28 -52 -32 -58 -82 -4 -28
-25 -162 -47 -297 -22 -135 -48 -299 -59 -365 -10 -66 -28 -176 -39 -245 -11
-69 -32 -197 -46 -285 -14 -88 -30 -185 -35 -214 -7 -38 -7 -58 0 -65 13 -13
1420 1390 1420 1416 0 20 1 19 -160 52 -69 14 -224 46 -345 71 -311 65 -507
105 -515 105 -3 0 -19 -14 -36 -31z"/>
</g>
</svg>
