<?xml version="1.0" encoding="UTF-8" standalone="no"?>
<svg width="142px" height="142px" viewBox="0 0 142 142" version="1.1" xmlns="http://www.w3.org/2000/svg" xmlns:xlink="http://www.w3.org/1999/xlink">
    <!-- Generator: Sketch 39.1 (31720) - http://www.bohemiancoding.com/sketch -->
    <title>logomark-dark</title>
    <desc>Created with Sketch.</desc>
    <defs></defs>
    <g id="Press" stroke="none" stroke-width="1" fill="none" fill-rule="evenodd">
        <g id="press-v4" transform="translate(-769.000000, -1837.000000)" fill="#FFFFFF">
            <g id="logo-resources" transform="translate(247.000000, 1109.000000)">
                <g id="Group-14" transform="translate(3.000000, 236.000000)">
                    <g id="Group-14-Copy-5" transform="translate(480.000000, 438.000000)">
                        <path d="M138.984956,104.219512 C139.708611,104.577796 140.311657,105.055509 140.794093,105.592935 C140.854398,105.652649 140.854398,105.652649 140.914702,105.652649 L140.975007,105.652649 L154.845055,99.7409588 C154.905359,99.6812447 154.965664,99.6215307 154.965664,99.5618167 C154.965664,99.5021026 154.965664,99.4423886 154.905359,99.3826745 L141.93988,86.5441548 C141.879575,86.4844407 141.819271,86.4844407 141.819271,86.4844407 L141.758966,86.4844407 C141.698661,86.4844407 141.638357,86.5441548 141.638357,86.6635828 L138.804043,104.04037 C138.864347,104.100084 138.924652,104.219512 138.984956,104.219512 Z M110.219682,92.5752733 C110.883033,93.5904121 111.305164,94.784693 111.425774,95.9789739 C111.425774,96.038688 111.486078,96.098402 111.546383,96.1581161 L132.170541,104.936081 L132.230846,104.936081 C132.29115,104.936081 132.351455,104.936081 132.351455,104.876367 C132.954501,104.398654 133.678155,104.04037 134.462115,103.801514 C134.522419,103.801514 134.582724,103.7418 134.582724,103.622372 L137.959779,82.6627418 C137.959779,82.6030278 137.959779,82.5433137 137.899474,82.4835997 L124.994299,69.6450799 C124.933994,69.5853659 124.933994,69.5853659 124.87369,69.5853659 C124.813385,69.5853659 124.753081,69.6450799 124.753081,69.7047939 L110.219682,92.2767031 C110.159378,92.3961312 110.159378,92.5155593 110.219682,92.5752733 Z M180.655406,124.880572 L158.523633,102.905803 C158.463328,102.846089 158.403024,102.846089 158.403024,102.846089 L158.342719,102.846089 L143.326884,109.235492 C143.26658,109.295206 143.206275,109.35492 143.206275,109.414634 C143.206275,109.474348 143.26658,109.593776 143.326884,109.593776 L180.353883,125.29857 L180.414187,125.29857 C180.474492,125.29857 180.534796,125.29857 180.534796,125.238856 L180.655406,125.119428 C180.776015,125.119428 180.776015,124.940286 180.655406,124.880572 Z M176.976828,128.463415 L141.457443,113.415475 L141.397139,113.415475 C141.336834,113.415475 141.27653,113.415475 141.216225,113.475189 C140.251352,114.788898 138.804043,115.624895 137.115515,115.863751 C137.05521,115.863751 136.934601,115.923465 136.934601,116.042893 L133.135414,139.391085 C133.135414,139.450799 133.135414,139.510513 133.195719,139.570227 C134.522419,140.585366 135.306378,142.078217 135.487292,143.75021 C135.487292,143.869638 135.547597,143.929352 135.668206,143.929352 L157.136628,148.407906 L157.196933,148.407906 C157.257237,148.407906 157.317542,148.407906 157.317542,148.348192 L176.976828,128.821699 C177.037132,128.761985 177.037132,128.702271 177.037132,128.642557 C177.037132,128.582843 177.037132,128.523129 176.976828,128.463415 Z M129.939273,108.518923 L110.521205,100.278385 L110.460901,100.278385 C110.400596,100.278385 110.340292,100.338099 110.279987,100.397813 C108.953287,102.428091 106.722018,103.622372 104.309836,103.622372 C103.948008,103.622372 103.586181,103.562658 103.164049,103.502944 L103.103745,103.502944 C103.04344,103.502944 102.983135,103.562658 102.922831,103.622372 L86.9421232,128.403701 C86.8818186,128.463415 86.8818186,128.582843 86.9421232,128.642557 C87.0024278,128.702271 87.0627323,128.702271 87.1230369,128.702271 L87.1833414,128.702271 L129.818664,110.489487 C129.878968,110.429773 129.939273,110.370059 129.939273,110.310345 L129.939273,110.071489 L129.939273,109.772918 C129.939273,109.414634 129.999577,109.05635 130.059882,108.75778 C130.059882,108.638352 129.999577,108.578638 129.939273,108.518923 Z M153.337441,151.87132 L134.462115,147.989907 L134.40181,147.989907 C134.341505,147.989907 134.281201,148.049622 134.220896,148.049622 C133.497242,148.945332 132.592673,149.661901 131.507191,150.079899 C131.446887,150.079899 131.386582,150.199327 131.386582,150.259041 L126.86374,178.085786 C126.86374,178.205214 126.924045,178.264929 126.984349,178.324643 L127.104958,178.324643 C127.165263,178.324643 127.225568,178.324643 127.225568,178.264929 L153.397746,152.289319 C153.45805,152.229605 153.45805,152.169891 153.45805,152.110177 C153.45805,151.931034 153.397746,151.87132 153.337441,151.87132 Z M126.984349,149.960471 C125.175213,149.243902 123.848512,147.631623 123.366076,145.780488 C123.366076,145.720774 123.305771,145.66106 123.185162,145.601346 L88.2085189,138.375946 C88.2085189,138.375946 88.2085189,138.375946 88.1482144,138.375946 C88.0879098,138.375946 88.0276052,138.43566 87.9673007,138.495374 C87.786387,138.793944 87.6657779,139.032801 87.4848642,139.271657 C87.4245597,139.331371 87.4245597,139.450799 87.4848642,139.510513 L119.325671,185.609756 C119.385975,185.66947 119.385975,185.66947 119.44628,185.66947 C119.506584,185.66947 119.566889,185.66947 119.566889,185.609756 L121.496635,183.698907 C121.496635,183.639193 121.556939,183.639193 121.556939,183.579479 L126.984349,150.139613 C127.104958,150.139613 127.104958,150.020185 126.984349,149.960471 Z M88.9321736,134.136249 C88.9321736,134.255677 88.9924782,134.315391 89.1130873,134.315391 L123.788208,141.481077 L123.848512,141.481077 C123.908817,141.481077 123.969122,141.421362 124.029426,141.361648 C125.054604,139.570227 126.86374,138.375946 128.914095,138.256518 C129.034704,138.256518 129.095009,138.196804 129.095009,138.077376 L132.833891,115.087468 C132.833891,115.027754 132.833891,114.908326 132.713282,114.908326 C132.472064,114.729184 132.230846,114.550042 131.929323,114.251472 C131.869019,114.191758 131.808714,114.191758 131.808714,114.191758 L131.748409,114.191758 L88.871869,132.52397 C88.7512599,132.583684 88.7512599,132.643398 88.7512599,132.762826 C88.8115645,133.240538 88.9321736,133.658537 88.9321736,134.136249 Z M74.3987752,139.928511 C74.2178616,139.689655 74.0369479,139.450799 73.8560342,139.152229 C73.7957297,139.092515 73.7354251,139.032801 73.6751206,139.032801 L73.614816,139.032801 L58.6592857,145.422204 C58.5989812,145.422204 58.5386766,145.481918 58.5386766,145.541632 C58.5386766,145.601346 58.5386766,145.66106 58.5989812,145.720774 L65.8958326,152.946173 C65.9561372,153.005887 66.0164418,153.005887 66.0164418,153.005887 C66.0767463,153.005887 66.1370509,152.946173 66.1973554,152.886459 L74.4590798,140.047939 C74.4590798,140.047939 74.4590798,139.988225 74.3987752,139.928511 Z M84.2887227,142.257359 C84.2284181,142.197645 84.1681136,142.137931 84.107809,142.137931 L84.0475044,142.137931 C82.9620224,142.615643 81.8765404,142.8545 80.7307538,142.8545 C79.8261854,142.8545 78.9819216,142.735071 78.0773533,142.436501 L78.0170487,142.436501 C77.9567441,142.436501 77.8964396,142.496215 77.836135,142.555929 L69.1522787,156.051304 L69.0919742,156.111018 C69.0316696,156.170732 69.0316696,156.29016 69.0919742,156.349874 L109.013591,195.940286 C109.073896,196 109.1342,196 109.1342,196 C109.194505,196 109.254809,196 109.254809,195.940286 L116.250138,188.953743 C116.310443,188.894029 116.310443,188.774601 116.250138,188.714886 L84.2887227,142.257359 Z M78.6803988,126.671993 C78.7407034,126.731707 78.8010079,126.791421 78.8613125,126.791421 L78.9216171,126.791421 C79.5246626,126.671993 80.1880128,126.552565 80.7910583,126.552565 C81.4544085,126.552565 82.1780632,126.671993 82.8414133,126.851135 L82.9017179,126.851135 C82.9620224,126.851135 83.022327,126.791421 83.0826315,126.731707 L99.2442529,101.651808 C99.3045575,101.592094 99.3045575,101.472666 99.2442529,101.412952 C97.9778572,100.099243 97.2542025,98.3675357 97.2542025,96.5164003 C97.2542025,95.9789739 97.3145071,95.4415475 97.4351162,94.9041211 C97.4351162,94.784693 97.3748117,94.724979 97.3145071,94.6652649 C95.2641521,93.7695542 77.1124803,86.1261564 77.1124803,86.0664424 L77.0521758,86.0664424 C76.9918712,86.0664424 76.9315667,86.0664424 76.9315667,86.1261564 L61.5539045,101.412952 C61.4935999,101.472666 61.4935999,101.592094 61.5539045,101.651808 L78.6803988,126.671993 Z M80.429231,82.961312 C80.429231,82.961312 98.7618165,90.7241379 99.5457757,91.0824222 L99.6060803,91.0824222 C99.6663848,91.0824222 99.6663848,91.0824222 99.7266894,91.0227082 C100.993085,90.0075694 102.621308,89.4104289 104.249531,89.4104289 C105.03349,89.4104289 105.81745,89.529857 106.601409,89.7687132 L106.661714,89.7687132 C106.722018,89.7687132 106.782323,89.7089992 106.842627,89.6492851 L121.737853,66.5399495 C121.798157,66.4802355 121.798157,66.3608074 121.737853,66.3010934 L109.375419,54.059714 C109.315114,54 109.315114,54 109.254809,54 C109.194505,54 109.1342,54 109.1342,54.059714 L80.429231,82.6030278 C80.3689264,82.6627418 80.3689264,82.7224558 80.3689264,82.7821699 C80.3086219,82.901598 80.3689264,82.901598 80.429231,82.961312 Z M73.3132932,131.031119 C73.3735978,131.031119 73.4339023,130.971405 73.4942069,130.91169 C73.8560342,130.195122 74.3987752,129.538267 74.9415163,128.941127 C75.0018208,128.881413 75.0018208,128.761985 74.9415163,128.702271 C74.7606026,128.463415 58.4180675,104.816653 58.4180675,104.756939 C58.357763,104.697225 58.357763,104.697225 58.2371538,104.637511 C58.1768493,104.637511 58.1165447,104.637511 58.1165447,104.697225 L39.0603046,123.566863 C39,123.626577 39,123.686291 39,123.746005 C39,123.805719 39.0603046,123.865433 39.1809137,123.865433 L73.3132932,131.031119 C73.2529887,131.031119 73.2529887,131.031119 73.3132932,131.031119 Z M71.7453747,135.151388 C71.7453747,135.03196 71.6850702,134.972246 71.564461,134.972246 L41.9549233,128.821699 C41.9549233,128.821699 41.9549233,128.821699 41.8946188,128.821699 C41.8343142,128.821699 41.7740096,128.881413 41.7137051,128.941127 C41.6534005,129.000841 41.7137051,129.120269 41.7740096,129.179983 L54.9807077,142.317073 C55.0410123,142.376787 55.1013169,142.376787 55.1013169,142.376787 L55.1616214,142.376787 L71.564461,135.390244 C71.6850702,135.270816 71.7453747,135.211102 71.7453747,135.151388 Z" id="logomark-dark"></path>
                    </g>
                </g>
            </g>
        </g>
    </g>
</svg>